<mxfile host="app.diagrams.net" modified="2023-11-28T10:39:12.982Z" agent="Mozilla/5.0 (Windows NT 10.0; Win64; x64) AppleWebKit/537.36 (KHTML, like Gecko) Chrome/119.0.0.0 Safari/537.36 Edg/119.0.0.0" etag="skWxdMeZCPrhlaNo3rs_" version="22.1.4" type="google">
  <diagram id="xUXQAE6k-ek9OCSI5YVQ" name="1 oldal">
    <mxGraphModel grid="1" page="1" gridSize="10" guides="1" tooltips="1" connect="1" arrows="1" fold="1" pageScale="1" pageWidth="827" pageHeight="1169" math="0" shadow="0">
      <root>
        <mxCell id="0" />
        <mxCell id="1" parent="0" />
        <mxCell id="nM9gzKh3N16CZYFFHNcq-1" value="USER" style="rounded=1;whiteSpace=wrap;html=1;" vertex="1" parent="1">
          <mxGeometry x="-20" y="220" width="130" height="60" as="geometry" />
        </mxCell>
        <mxCell id="nM9gzKh3N16CZYFFHNcq-2" value="Display data" style="ellipse;whiteSpace=wrap;html=1;aspect=fixed;" vertex="1" parent="1">
          <mxGeometry x="374" y="210" width="80" height="80" as="geometry" />
        </mxCell>
        <mxCell id="nM9gzKh3N16CZYFFHNcq-3" value="Create data" style="ellipse;whiteSpace=wrap;html=1;aspect=fixed;" vertex="1" parent="1">
          <mxGeometry x="200" y="505" width="80" height="80" as="geometry" />
        </mxCell>
        <mxCell id="nM9gzKh3N16CZYFFHNcq-4" value="Create receipt" style="ellipse;whiteSpace=wrap;html=1;aspect=fixed;" vertex="1" parent="1">
          <mxGeometry x="730" y="350" width="80" height="80" as="geometry" />
        </mxCell>
        <mxCell id="nM9gzKh3N16CZYFFHNcq-5" value="Display stats" style="ellipse;whiteSpace=wrap;html=1;aspect=fixed;" vertex="1" parent="1">
          <mxGeometry x="200" y="350" width="80" height="80" as="geometry" />
        </mxCell>
        <mxCell id="nM9gzKh3N16CZYFFHNcq-6" value="FIREBASE DATABASE" style="rounded=0;whiteSpace=wrap;html=1;" vertex="1" parent="1">
          <mxGeometry x="354" y="360" width="120" height="60" as="geometry" />
        </mxCell>
        <mxCell id="nM9gzKh3N16CZYFFHNcq-7" value="FIREBASE STORAGE" style="rounded=0;whiteSpace=wrap;html=1;" vertex="1" parent="1">
          <mxGeometry x="580" y="360" width="120" height="60" as="geometry" />
        </mxCell>
        <mxCell id="nM9gzKh3N16CZYFFHNcq-8" value="Update data" style="ellipse;whiteSpace=wrap;html=1;aspect=fixed;" vertex="1" parent="1">
          <mxGeometry x="490" y="210" width="80" height="80" as="geometry" />
        </mxCell>
        <mxCell id="nM9gzKh3N16CZYFFHNcq-9" value="Delete data" style="ellipse;whiteSpace=wrap;html=1;aspect=fixed;" vertex="1" parent="1">
          <mxGeometry x="490" y="505" width="80" height="80" as="geometry" />
        </mxCell>
        <mxCell id="nM9gzKh3N16CZYFFHNcq-10" value="" style="endArrow=classic;html=1;rounded=0;exitX=1;exitY=0.5;exitDx=0;exitDy=0;entryX=0;entryY=0.5;entryDx=0;entryDy=0;" edge="1" parent="1" source="nM9gzKh3N16CZYFFHNcq-1" target="nM9gzKh3N16CZYFFHNcq-2">
          <mxGeometry width="50" height="50" relative="1" as="geometry">
            <mxPoint x="520" y="300" as="sourcePoint" />
            <mxPoint x="570" y="250" as="targetPoint" />
          </mxGeometry>
        </mxCell>
        <mxCell id="nM9gzKh3N16CZYFFHNcq-11" value="" style="endArrow=classic;html=1;rounded=0;exitX=0.5;exitY=0;exitDx=0;exitDy=0;entryX=0.5;entryY=1;entryDx=0;entryDy=0;" edge="1" parent="1" source="nM9gzKh3N16CZYFFHNcq-6" target="nM9gzKh3N16CZYFFHNcq-2">
          <mxGeometry width="50" height="50" relative="1" as="geometry">
            <mxPoint x="520" y="300" as="sourcePoint" />
            <mxPoint x="570" y="250" as="targetPoint" />
          </mxGeometry>
        </mxCell>
        <mxCell id="nM9gzKh3N16CZYFFHNcq-12" value="Display receipts" style="ellipse;whiteSpace=wrap;html=1;aspect=fixed;" vertex="1" parent="1">
          <mxGeometry x="600" y="210" width="80" height="80" as="geometry" />
        </mxCell>
        <mxCell id="nM9gzKh3N16CZYFFHNcq-13" value="" style="endArrow=classic;html=1;rounded=0;exitX=0.5;exitY=0;exitDx=0;exitDy=0;entryX=0.5;entryY=1;entryDx=0;entryDy=0;" edge="1" parent="1" source="nM9gzKh3N16CZYFFHNcq-7" target="nM9gzKh3N16CZYFFHNcq-12">
          <mxGeometry width="50" height="50" relative="1" as="geometry">
            <mxPoint x="424" y="370" as="sourcePoint" />
            <mxPoint x="424" y="300" as="targetPoint" />
          </mxGeometry>
        </mxCell>
        <mxCell id="nM9gzKh3N16CZYFFHNcq-14" value="" style="endArrow=classic;html=1;rounded=0;exitX=0;exitY=0.5;exitDx=0;exitDy=0;entryX=1;entryY=0.5;entryDx=0;entryDy=0;" edge="1" parent="1" source="nM9gzKh3N16CZYFFHNcq-7" target="nM9gzKh3N16CZYFFHNcq-6">
          <mxGeometry width="50" height="50" relative="1" as="geometry">
            <mxPoint x="630" y="370" as="sourcePoint" />
            <mxPoint x="630" y="300" as="targetPoint" />
          </mxGeometry>
        </mxCell>
        <mxCell id="nM9gzKh3N16CZYFFHNcq-15" value="" style="endArrow=classic;html=1;rounded=0;exitX=0.5;exitY=1;exitDx=0;exitDy=0;entryX=1;entryY=0;entryDx=0;entryDy=0;" edge="1" parent="1" source="nM9gzKh3N16CZYFFHNcq-8" target="nM9gzKh3N16CZYFFHNcq-6">
          <mxGeometry width="50" height="50" relative="1" as="geometry">
            <mxPoint x="640" y="380" as="sourcePoint" />
            <mxPoint x="640" y="310" as="targetPoint" />
          </mxGeometry>
        </mxCell>
        <mxCell id="nM9gzKh3N16CZYFFHNcq-16" value="" style="endArrow=classic;html=1;rounded=0;exitX=0.5;exitY=0;exitDx=0;exitDy=0;entryX=0;entryY=1;entryDx=0;entryDy=0;" edge="1" parent="1" source="nM9gzKh3N16CZYFFHNcq-3" target="nM9gzKh3N16CZYFFHNcq-6">
          <mxGeometry width="50" height="50" relative="1" as="geometry">
            <mxPoint x="650" y="390" as="sourcePoint" />
            <mxPoint x="650" y="320" as="targetPoint" />
          </mxGeometry>
        </mxCell>
        <mxCell id="nM9gzKh3N16CZYFFHNcq-17" value="" style="endArrow=classic;html=1;rounded=0;exitX=0;exitY=0.5;exitDx=0;exitDy=0;entryX=1;entryY=0.5;entryDx=0;entryDy=0;" edge="1" parent="1" source="nM9gzKh3N16CZYFFHNcq-6" target="nM9gzKh3N16CZYFFHNcq-5">
          <mxGeometry width="50" height="50" relative="1" as="geometry">
            <mxPoint x="660" y="400" as="sourcePoint" />
            <mxPoint x="660" y="330" as="targetPoint" />
          </mxGeometry>
        </mxCell>
        <mxCell id="nM9gzKh3N16CZYFFHNcq-18" value="" style="endArrow=classic;html=1;rounded=0;exitX=0.5;exitY=0;exitDx=0;exitDy=0;entryX=1;entryY=1;entryDx=0;entryDy=0;" edge="1" parent="1" source="nM9gzKh3N16CZYFFHNcq-9" target="nM9gzKh3N16CZYFFHNcq-6">
          <mxGeometry width="50" height="50" relative="1" as="geometry">
            <mxPoint x="670" y="410" as="sourcePoint" />
            <mxPoint x="670" y="340" as="targetPoint" />
          </mxGeometry>
        </mxCell>
        <mxCell id="nM9gzKh3N16CZYFFHNcq-19" value="" style="endArrow=classic;html=1;rounded=0;exitX=0;exitY=0.5;exitDx=0;exitDy=0;entryX=1;entryY=0.5;entryDx=0;entryDy=0;" edge="1" parent="1" source="nM9gzKh3N16CZYFFHNcq-4" target="nM9gzKh3N16CZYFFHNcq-7">
          <mxGeometry width="50" height="50" relative="1" as="geometry">
            <mxPoint x="680" y="420" as="sourcePoint" />
            <mxPoint x="680" y="350" as="targetPoint" />
          </mxGeometry>
        </mxCell>
        <mxCell id="nM9gzKh3N16CZYFFHNcq-20" value="" style="endArrow=classic;html=1;rounded=0;exitX=1;exitY=0.5;exitDx=0;exitDy=0;entryX=0;entryY=0.5;entryDx=0;entryDy=0;" edge="1" parent="1" source="nM9gzKh3N16CZYFFHNcq-2" target="nM9gzKh3N16CZYFFHNcq-8">
          <mxGeometry width="50" height="50" relative="1" as="geometry">
            <mxPoint x="690" y="430" as="sourcePoint" />
            <mxPoint x="690" y="360" as="targetPoint" />
          </mxGeometry>
        </mxCell>
        <mxCell id="nM9gzKh3N16CZYFFHNcq-21" value="Login" style="ellipse;whiteSpace=wrap;html=1;aspect=fixed;" vertex="1" parent="1">
          <mxGeometry x="170" y="210" width="80" height="80" as="geometry" />
        </mxCell>
        <mxCell id="nM9gzKh3N16CZYFFHNcq-22" value="Register" style="ellipse;whiteSpace=wrap;html=1;aspect=fixed;" vertex="1" parent="1">
          <mxGeometry x="170" y="80" width="80" height="80" as="geometry" />
        </mxCell>
        <mxCell id="nM9gzKh3N16CZYFFHNcq-23" value="" style="endArrow=classic;html=1;rounded=0;exitX=0;exitY=0;exitDx=0;exitDy=0;entryX=1;entryY=1;entryDx=0;entryDy=0;" edge="1" parent="1" source="nM9gzKh3N16CZYFFHNcq-6" target="nM9gzKh3N16CZYFFHNcq-21">
          <mxGeometry width="50" height="50" relative="1" as="geometry">
            <mxPoint x="520" y="410" as="sourcePoint" />
            <mxPoint x="570" y="360" as="targetPoint" />
          </mxGeometry>
        </mxCell>
        <mxCell id="nM9gzKh3N16CZYFFHNcq-24" value="" style="endArrow=classic;html=1;rounded=0;exitX=1;exitY=0.5;exitDx=0;exitDy=0;entryX=0.25;entryY=0;entryDx=0;entryDy=0;" edge="1" parent="1" source="nM9gzKh3N16CZYFFHNcq-22" target="nM9gzKh3N16CZYFFHNcq-6">
          <mxGeometry width="50" height="50" relative="1" as="geometry">
            <mxPoint x="520" y="410" as="sourcePoint" />
            <mxPoint x="570" y="360" as="targetPoint" />
          </mxGeometry>
        </mxCell>
      </root>
    </mxGraphModel>
  </diagram>
</mxfile>
